<svg width="27" height="51" viewBox="0 0 27 51" fill="none" xmlns="http://www.w3.org/2000/svg">
<path d="M26.2494 15.9393V7.97101C26.2494 7.09091 25.5359 6.37735 24.6557 6.37735H23.0621V1.59635C23.0621 0.716248 22.3486 0.00268395 21.4684 0.00268395C19.2122 0.00268395 15.7569 -0.170229 11.7008 2.25971C9.17943 1.5092 7.39622 1.59635 5.53173 1.59635C4.65153 1.59635 3.93806 2.30991 3.93806 3.19002V6.37735H2.3444C1.4642 6.37735 0.750732 7.09091 0.750732 7.97101V15.9393C0.750732 22.4297 5.62586 27.8026 11.9064 28.5893V49.4063C11.9064 50.2864 12.6199 51 13.5001 51C14.3803 51 15.0937 50.2864 15.0937 49.4063V43.8285H17.4842C22.3173 43.8285 26.2494 39.8964 26.2494 35.0633V32.6728C26.2494 31.7927 25.5359 31.0792 24.6557 31.0792H20.6716C18.5545 31.0792 16.6103 31.8337 15.0937 33.0879V28.5885C21.3649 27.8119 26.2494 22.4657 26.2494 15.9393ZM23.0621 15.9393C23.0621 18.7756 21.8077 21.3372 19.8253 23.0935C19.8566 22.8378 19.8747 22.5781 19.8747 22.314C19.8747 18.2781 18.3659 14.5886 15.8838 11.7778C17.9881 10.3419 20.4831 9.56468 23.0621 9.56468V15.9393ZM19.8747 3.19002V6.69887C19.5802 6.75883 19.2878 6.82726 18.9977 6.90366C17.9638 5.74636 16.7847 4.76037 15.4973 3.96364C16.8889 3.45486 18.3661 3.19002 19.8747 3.19002ZM7.1254 4.78368C10.2915 4.78368 13.3662 5.93979 15.7574 8.14871C14.9682 8.55599 14.2115 9.0308 13.4954 9.56916C11.6424 8.1761 9.47735 7.17707 7.1254 6.69777V4.78368ZM3.93806 15.9393V9.56468C10.968 9.56468 16.6874 15.2839 16.6874 22.314C16.6874 24.0949 15.2167 25.5461 13.4163 25.4998C7.81754 25.3616 3.93806 20.9135 3.93806 15.9393ZM20.6716 34.2665H23.0621V35.0633C23.0621 38.1389 20.5599 40.6412 17.4842 40.6412H15.0937V39.8443C15.0937 36.7688 17.596 34.2665 20.6716 34.2665Z" fill="white"/>
</svg>
