<svg width="626" height="821" viewBox="0 0 626 821" fill="none" xmlns="http://www.w3.org/2000/svg" style="">
<style>
    @keyframes change_fill {
    0% { fill: #49549E; }
    75% { fill: #1bceb1; }
    100% { fill: #1bce4f; }
}
    </style>
<path fill-rule="evenodd" clip-rule="evenodd" d="M-256.474 -218.642C-256.553 -241.058 -288.185 -266.266 -301.697 -279.262C-328.414 -304.966 -356.2 -328.703 -383.73 -352.819C-411.259 -376.934 -438.862 -400.985 -465.113 -427.46C-482.158 -444.647 -502.186 -464.003 -513.745 -488.544C-538.371 -540.842 -460.728 -533.076 -440.617 -534.22C-389.453 -537.142 -330.767 -535.808 -282.809 -563.042C-254.18 -579.3 -242.764 -606.567 -248.913 -646.307C-250.895 -659.231 -256.761 -674.103 -251.792 -686.693C-246.485 -700.14 -234.276 -707.9 -224.143 -713.104C-187.185 -732.062 -144.692 -734.258 -105.588 -736.638C-63.4223 -739.253 -20.86 -738.488 21.0086 -738.69C38.7619 -738.775 57.303 -747.189 74.209 -754.027C96.3721 -762.989 118.273 -773.056 140.252 -782.79C188.607 -804.154 238.433 -826.655 289.592 -832.081C321.63 -835.48 356.646 -830.885 381.535 -801.317C394.031 -786.471 400.571 -764.401 407.795 -744.796C416.541 -721.112 424.939 -697.199 434.249 -673.887C464.241 -598.807 507.061 -525.44 576.563 -521.753C587.077 -521.197 597.403 -523.008 607.868 -523.348C614.532 -523.557 620.463 -521.433 622.941 -512.235C629.169 -489.165 609.592 -452.746 601.565 -434.442C583.99 -394.376 564.171 -356.107 545.605 -316.844C533.322 -290.878 512.061 -255.394 511.838 -223.846C511.64 -195.736 539.981 -175.418 555.411 -161.572C569.869 -148.609 596.065 -130.468 597.651 -104.097C598.419 -91.3106 592.027 -80.7137 585.353 -72.4899C573.655 -58.1081 560.177 -47.9623 549.653 -31.5539C532.395 -4.63369 517.977 32.4061 520.32 68.6811C521.946 93.8167 532.817 110.277 546.646 126.012C552.458 132.628 557.175 137.309 557.482 148.049C557.977 165.105 552.914 183.154 548.742 198.968C533.818 255.56 512.621 310.283 489.04 361.378C477.258 386.912 464.529 412.368 448.906 434.15C438.674 448.454 424.875 465.477 409.267 465.457C391.197 465.457 372.076 456.854 354.511 450.421C321.705 438.4 289.295 424.501 257.014 410.244C182.361 377.257 108.409 341.599 35.1597 303.269C-16.4353 276.224 -69.1254 249.141 -117.634 213.186C-127.094 206.125 -136.023 197.893 -144.301 188.6C-153.145 178.84 -164.12 174.473 -175.249 171.217C-244.32 151.011 -319.99 166.524 -389.349 176.251C-406.953 178.715 -424.558 181.193 -442.212 182.919C-457.389 184.403 -475.558 188.659 -490.309 182.265C-519.374 169.681 -493.966 123.299 -483.223 104.4C-445.403 37.8582 -396.607 -18.4403 -351.379 -75.9154C-329.875 -103.287 -308.208 -130.586 -287.873 -159.507C-277.284 -174.542 -256.404 -198.991 -256.474 -218.642Z" stroke="#5BE7C3" stroke-width="2" class="svg-elem-1 NbJsdCfc_0"></path>
<path fill-rule="evenodd" clip-rule="evenodd" d="M-243.44 -222.421C-255.033 -246.141 -275.372 -263.673 -292.255 -280.172C-316.55 -303.924 -341.609 -326.356 -366.291 -349.436C-389.63 -371.26 -413.018 -393.333 -434.631 -418.118C-447.81 -433.232 -464.346 -451.306 -470.588 -473.659C-484.129 -522.111 -411.283 -514.76 -393.299 -516.028C-348.59 -519.165 -297.902 -519.883 -256.54 -545.393C-230.713 -561.324 -220.102 -587.742 -225.611 -624.419C-227.514 -637.109 -230.946 -647.943 -226.602 -660.567C-221.579 -675.178 -210.027 -684.287 -199.436 -690.717C-166.26 -710.862 -127.045 -715.142 -91.083 -718.703C-53.9307 -722.382 -15.2216 -724.976 20.7357 -722.284C35.1147 -721.212 51.6654 -727.296 65.8956 -731.961C87.7913 -739.149 109.464 -747.441 131.25 -755.152C175.528 -770.834 220.955 -785.941 267.018 -787.66C300.273 -788.901 334.946 -782.171 362.613 -756.158C390.652 -729.779 403.092 -688.887 418.641 -650.014C445.495 -582.809 481.765 -501.097 543.892 -486.898C553.313 -484.742 562.366 -485.911 571.777 -485.382C576.616 -485.114 582.125 -484.265 584.579 -477.972C590.951 -461.636 573.493 -431.768 567.617 -419.255C551.384 -384.675 533.132 -351.788 516.121 -317.875C502.609 -290.947 485.484 -261.026 480.258 -229.106C473.916 -190.371 515.352 -162.809 529.924 -135.534C555.187 -88.2391 507.325 -61.2916 483.728 -38.7416C456.631 -12.8526 434.265 34.3774 458.555 74.4328C467.847 89.7493 479.281 98.8777 483.431 118.866C489.921 150.126 485.013 185.85 479.747 216.75C471.814 263.203 459.259 309.152 442.193 351.135C429.966 381.193 409.682 428.325 379.977 424.79C359.98 422.431 339.651 413.812 320.18 406.193C291.025 394.791 262.238 381.794 233.604 368.294C167.505 337.217 102.136 302.951 38.05 265.261C-5.67692 239.536 -127.65 134.405 -136.828 130.654C-164.193 119.48 -195.306 121.447 -223.518 123.179C-261.047 125.479 -298.388 131.438 -335.699 136.96C-353.459 139.573 -371.309 142.769 -389.164 144.056C-401.872 144.971 -418.561 145.755 -429.693 136.012C-451.42 117.004 -427.213 73.5115 -417.203 55.1108C-386.536 -1.29996 -347.742 -50.1505 -311.369 -100.099C-293.519 -124.622 -275.396 -149.106 -259.193 -175.596C-252.658 -186.293 -236.276 -207.771 -243.44 -222.421Z" stroke="#5ACEF2" stroke-width="2" class="svg-elem-2 NbJsdCfc_1"></path>
<path fill-rule="evenodd" clip-rule="evenodd" d="M-218.693 -242.71C-250.352 -290.175 -294.047 -325.477 -331.759 -365.119C-350.687 -385.021 -369.734 -405.466 -386.059 -429.173C-394.551 -441.5 -405.155 -457.089 -406.791 -474.272C-411.164 -520.241 -345.506 -514.025 -325.855 -515.77C-287.86 -519.156 -244.938 -521.725 -210.468 -545.183C-189.409 -559.523 -179.037 -583.06 -182.974 -613.996C-184.719 -627.721 -187.435 -639.382 -182.974 -652.859C-178.452 -666.513 -169.033 -676.148 -159.495 -683.37C-132.085 -704.142 -98.0214 -710.783 -67.1608 -715.731C-30.9581 -721.494 5.51677 -723.744 41.9695 -722.463C73.896 -721.358 105.669 -733.784 136.842 -741.973C178.138 -752.817 220.183 -762.288 262.441 -760.856C295.815 -759.719 329.452 -750.784 357.982 -727.038C386.974 -702.855 404.405 -666.657 420.12 -627.597C443.877 -568.55 473.483 -489.423 525.602 -466.998C533.182 -463.729 540.246 -463.37 548.064 -462.801C551.862 -462.527 556.765 -462.442 558.649 -457.219C563.18 -444.644 546.428 -420.264 541.753 -411.767C526.831 -384.642 510.655 -358.739 495.361 -331.974C481.083 -306.986 465.531 -280.946 456.662 -251.664C442.548 -205.029 487.672 -177.76 486.407 -133.321C485.619 -105.732 465.586 -85.9466 449.722 -72.2599C430.189 -55.4293 402.065 -44.3637 392.289 -13.6503C385.006 9.22623 396.433 22.5404 405.233 39.9004C420.145 69.313 421.161 109.184 419.61 143.23C417.518 189.238 409.343 235.926 395.427 278.215C389.121 297.385 381.397 317.327 370.024 332.217C359.371 346.171 349.287 349.746 335.049 346.89C291.462 338.132 247.454 313.719 205.657 291.915C153.142 264.515 101.351 234.266 51.1062 200.232C16.8447 177.022 -18.1902 152.466 -48.2626 120.4C-56.1005 112.04 -64.1267 102.955 -69.8576 91.9281C-74.1905 83.6403 -76.0297 76.7969 -83.3322 72.0647C-104.977 58.0447 -135.084 61.7115 -158.275 63.1691C-195.358 65.4894 -232.262 71.6661 -269.116 77.2283C-290.622 80.4964 -331.135 90.7778 -348.307 66.1169C-363.13 44.8221 -345.244 8.51378 -336.107 -10.245C-312.995 -57.6843 -283.265 -99.3196 -255.681 -142.19C-243.039 -161.838 -229.902 -181.636 -219.461 -203.48C-216.794 -209.048 -212.521 -216.428 -211.787 -223.193C-210.964 -230.945 -214.806 -236.86 -218.693 -242.71Z" stroke="#5BE7C3" stroke-width="2" class="svg-elem-3 NbJsdCfc_2"></path>
<path fill-rule="evenodd" clip-rule="evenodd" d="M-224.681 -223.536C-253.935 -265.505 -289.178 -299.983 -320.584 -339.256C-334.666 -356.865 -348.886 -375.338 -359.616 -396.819C-365.387 -408.371 -371.515 -422.912 -369.924 -437.27C-365.357 -478.479 -311.357 -474.757 -289.54 -477.171C-257.123 -480.716 -219.882 -484.288 -191.218 -506.508C-172.441 -521.062 -165.4 -542.557 -168.905 -570.278C-172.669 -600.014 -164.255 -621.6 -145.106 -638.189C-121.098 -658.97 -90.7928 -667.441 -62.9174 -673.459C-29.333 -680.675 4.67682 -683.873 38.6975 -683.015C71.784 -682.178 103.839 -689.491 136.708 -694.247C180.286 -700.546 225.262 -703.653 268.35 -690.741C305.864 -679.496 339.749 -654.718 365.15 -616.4C391.682 -576.407 404.816 -526.02 426.36 -481.776C439.797 -454.179 458.534 -417.672 483.643 -406.945C492.018 -403.367 507.279 -408.194 500.59 -390.592C496.768 -380.525 489.613 -371.694 483.96 -363.465C474.827 -350.167 465.392 -337.235 456.105 -324.12C436.311 -296.163 415.115 -267.611 400.28 -234.506C381.587 -192.825 409.373 -160.747 405.987 -118.485C404.167 -95.7411 392.178 -77.5893 379.495 -63.3295C371.289 -54.0934 362.309 -46.0935 353.141 -38.63C343.567 -30.8329 332.237 -24.8935 323.888 -14.8135C311.988 -0.468691 317.154 16.5122 319.385 35.0565C323.313 67.6461 324.175 100.751 321.954 133.619C319.237 173.906 312.865 215.345 299.443 251.956C294.222 266.209 287.608 281.319 277.785 290.876C267.963 300.432 257.804 299.778 246.548 296.9C213.164 288.397 179.85 268.61 148.181 249.856C108.545 226.38 69.6867 200.143 32.5789 170.296C6.9645 149.691 -18.7342 127.431 -40.1639 99.4937C-46.3964 91.363 -52.3265 82.6567 -57.1212 72.9365C-60.4135 66.271 -62.1786 57.6694 -66.9485 52.6588C-81.8729 37.0189 -111.836 41.6893 -129.338 42.5985C-164.27 44.4104 -198.65 53.0251 -233.537 55.1183C-252.576 56.263 -282.395 59.1411 -296.378 37.758C-309.527 17.6569 -297.617 -14.0024 -289.758 -33.3709C-274.313 -71.4537 -253.563 -105.383 -234.965 -140.784C-227.319 -155.351 -218.939 -170.592 -213.986 -187.226C-209.583 -202.048 -217.184 -212.776 -224.681 -223.536Z" stroke="#5ACEF2" stroke-width="2" class="svg-elem-4 NbJsdCfc_3"></path>
<path fill-rule="evenodd" clip-rule="evenodd" d="M-217.486 -222.85C-240.771 -259.781 -268.842 -292.564 -292.296 -330.096C-306.024 -352.075 -329.666 -389.026 -319.049 -420.012C-307.401 -454.063 -266.801 -454.99 -243.333 -457.734C-215.4 -461 -182.598 -465.461 -158.694 -486.722C-151.133 -493.443 -144.693 -502.339 -141.963 -514.057C-139.04 -526.599 -142.236 -537.572 -142.652 -550.126C-143.524 -576.462 -131.604 -597.606 -115.829 -612.126C-93.535 -632.656 -65.6573 -642.362 -39.3253 -649.129C-9.49262 -656.761 20.8352 -660.524 51.2241 -660.363C80.2661 -660.233 109.001 -661.082 138.073 -662.062C176.092 -663.368 214.646 -661.258 251.526 -647.94C287.855 -634.811 320.886 -610.206 346.831 -574.013C372.143 -538.695 389.22 -495.527 404.177 -451.555C412.664 -426.596 427.001 -389.3 447.245 -376.693C456.246 -371.083 465.08 -371.468 455.508 -356.876C443.455 -338.502 427.209 -323.76 413.248 -308.044C393.109 -285.366 372.465 -262.243 355.561 -235.28C344.765 -218.062 339.955 -201.354 340.698 -179.061C341.272 -162.078 343.878 -145.271 342.561 -128.223C339.474 -88.2096 315.58 -60.7694 294.455 -35.217C280.865 -18.783 268.454 -6.24841 261.459 17.1289C253.185 44.7585 249.712 74.8179 244.183 103.506C238.109 135.009 231.094 167.779 217.837 195.526C206.035 220.229 191.683 231.307 170.201 224.651C136.695 214.279 103.67 188.726 73.9246 165.087C43.649 141.037 13.8936 113.996 -11.1948 80.9382C-24.7398 63.0868 -33.9846 42.1262 -46.0135 22.9488C-61.1439 -1.12747 -95.373 7.99095 -115.715 10.0289C-149.484 13.4124 -255.738 38.7296 -245.934 -43.2707C-241.841 -77.4974 -225.725 -109.085 -213.939 -139.288C-209.054 -151.823 -201.984 -166.866 -200.879 -181.229C-199.676 -196.873 -210.486 -211.733 -217.486 -222.85Z" stroke="#FF8062" stroke-width="2" class="svg-elem-5 NbJsdCfc_4"></path>
<path fill-rule="evenodd" clip-rule="evenodd" d="M-205.192 -219.714C-222.986 -253.18 -244.281 -284.798 -259.549 -320.944C-269.454 -344.353 -279.181 -375.631 -266.403 -400.399C-251.982 -428.35 -220.183 -434.866 -196.817 -438.427C-172.744 -442.094 -144.005 -445.178 -124.329 -466.372C-118.069 -473.123 -112.909 -482.226 -111.948 -493.127C-111.022 -503.584 -113.637 -514.04 -112.77 -524.686C-110.829 -548.592 -99.8392 -568.289 -85.6703 -582.575C-43.7581 -624.838 18.6224 -634.236 69.1915 -635.34C94.5032 -635.889 120.553 -633.007 146.028 -630.942C179.085 -628.262 212.192 -622.511 243.719 -608.65C310.75 -579.189 355.678 -513.85 387.057 -432.546C396.932 -406.954 404.489 -379.264 419.966 -358.698C427.944 -348.078 426.201 -340.452 418.044 -330.766C405.292 -315.631 389.736 -304.063 375.582 -291.431C355.451 -273.466 334.888 -255.232 317.084 -233.712C304.812 -218.877 296.101 -204.584 293.456 -182.339C291.569 -166.478 292.01 -150.316 290.876 -134.357C288.717 -104.04 281.323 -73.9521 268.234 -48.8046C257.834 -28.8722 245.453 -10.7566 232.656 6.51595C216.02 29.0036 201.951 51.8507 189.317 78.5405C172.568 113.87 149.034 179.039 109.583 161.793C66.0714 142.762 25.2884 94.408 -2.62835 47.5571C-12.0033 31.8268 -19.6993 12.5349 -32.3428 0.934876C-51.2709 -16.403 -70.4763 -15.7953 -92.99 -15.7234C-126.696 -15.6254 -200.041 -5.97285 -200.834 -72.5797C-201.146 -98.9689 -192.489 -123.92 -188.344 -149.303C-183.669 -177.731 -193.038 -196.906 -205.192 -219.714Z" stroke="#F1B170" stroke-width="2" class="svg-elem-6 NbJsdCfc_5"></path>
<path fill-rule="evenodd" clip-rule="evenodd" d="M-191.938 -216.73C-209.539 -260.348 -249.007 -332.022 -218.989 -380.525C-203.132 -406.158 -175.086 -415.79 -151.559 -421.531C-132.625 -426.174 -109.792 -427.918 -95.4866 -447.601C-84.9717 -462.073 -89.6395 -483.134 -85.6109 -501.25C-80.6112 -523.709 -69.1351 -542.086 -55.0327 -555.899C-15.6245 -594.501 39.1695 -606.348 86.5754 -608.869C135.81 -611.481 190.059 -599.262 236.389 -575.758C294.156 -546.442 337.435 -490.932 367.701 -420.636C373.285 -407.66 378.359 -394.344 383.721 -381.211C387.323 -372.401 392.665 -363.878 395.504 -354.611C400.231 -339.16 394.662 -326.53 385.732 -316.459C372.889 -301.961 357.111 -291.643 342.469 -280.763C322.445 -265.873 301.976 -251.251 283.349 -233.781C270.832 -222.026 257.731 -209.363 253.252 -188.968C250.194 -175.058 249.56 -160.325 249.669 -145.918C249.907 -115.028 248.678 -90.0485 237.747 -61.7578C219.76 -15.3119 192.1 26.4516 162.88 61.2011C139.947 88.4731 103.661 130.837 70.2482 112.604C40.2696 96.2772 22.7333 57.1979 2.9821 25.6026C-6.62097 10.2426 -17.4083 -3.78526 -30.0836 -14.711C-46.0639 -28.4841 -61.1078 -34.2638 -80.0414 -36.5168C-111.908 -40.3111 -159.958 -41.2973 -169.809 -91.7138C-173.446 -110.32 -171.37 -129.592 -173.277 -148.439C-175.77 -173.36 -183.059 -194.728 -191.938 -216.73Z" stroke="#5BE7C3" stroke-width="2" class="svg-elem-7 NbJsdCfc_6"></path>
<path fill-rule="evenodd" clip-rule="evenodd" d="M-173.637 -215.114C-186.17 -262.841 -202.635 -322.99 -172.364 -365.408C-157.702 -385.956 -137.077 -397.443 -117.116 -406.028C-102.82 -412.18 -80.1199 -413.991 -71.355 -432.905C-64.9175 -446.824 -64.0262 -466.026 -58.2027 -480.939C-50.2004 -501.442 -38.0781 -518.329 -23.8562 -531.549C13.194 -565.997 61.4504 -579.308 105.458 -583.12C201.08 -591.39 298.375 -525.521 349.543 -417.149C364.8 -384.845 384.494 -350.462 359.838 -317.459C332.919 -281.455 292.368 -264.587 260.24 -239.004C247.964 -229.236 232.321 -217.494 225.473 -199.809C221.353 -189.179 221.071 -175.841 220.882 -164.138C220.387 -134.332 218.51 -107.527 209.424 -79.7145C195.39 -36.7343 173.012 2.91808 147.653 35.3984C125.538 63.7206 93.9994 97.005 61.8812 76.5872C37.2554 60.8962 21.637 27.5921 2.50282 3.0423C-18.7904 -24.2992 -45.1247 -42.723 -74.0439 -51.7257C-102.176 -60.4603 -133.031 -66.351 -147.857 -103.46C-152.943 -116.189 -158.256 -132.671 -160.163 -146.761C-163.24 -169.991 -167.747 -192.851 -173.637 -215.114V-215.114Z" stroke="#FF8062" stroke-width="2" class="svg-elem-8 NbJsdCfc_7"></path>
<path fill-rule="evenodd" clip-rule="evenodd" d="M-153.23 -214.778C-159.028 -262.972 -159.673 -313.225 -132.733 -351.208C-120.16 -368.929 -104.267 -381.518 -88.1955 -392.925C-76.371 -401.317 -64.16 -408.397 -55.3288 -422.156C-47.1468 -434.896 -40.9274 -449.688 -33.0279 -462.761C-22.6076 -480.085 -10.1394 -495.083 3.89761 -507.176C39.0836 -537.434 81.8866 -551.586 122.836 -556.494C142.659 -558.88 164.162 -560.122 183.852 -553.618C202.867 -547.343 221.669 -537.421 239.153 -525.851C276.321 -501.28 308.534 -465.297 331.886 -419.803C347.898 -388.597 356.555 -358.255 335.821 -326.598C312.444 -290.916 275.791 -271.228 245.581 -248.069C224.861 -232.185 201.638 -216.615 197.768 -182.86C194.685 -156.002 192.182 -130.509 184.209 -105.122C172.341 -67.674 154.892 -33.7518 132.896 -5.36764C112.781 20.4908 87.333 42.434 58.5598 28.6223C35.7633 17.6605 18.0761 -6.89718 -1.84117 -24.4543C-24.0381 -44.0638 -48.4255 -54.8753 -74.1063 -63.5688C-97.1853 -71.4127 -118.916 -83.466 -133.833 -109.056C-136.886 -114.286 -140.092 -119.979 -142.446 -125.829C-145.45 -133.294 -145.217 -140.693 -145.806 -149.06C-147.343 -171.14 -150.609 -192.966 -153.23 -214.778Z" stroke="#F1B170" stroke-width="2" class="svg-elem-9 NbJsdCfc_8"></path>
<path fill-rule="evenodd" clip-rule="evenodd" d="M248.101 643.649C207.747 675.944 162.127 702.602 119.108 729.698C56.2407 769.29 -7.5526 807.817 -73.6096 837.31C-109.026 853.118 -154.918 875.909 -192.919 863.524C-206.813 858.997 -219.484 845.305 -231.941 836.408C-249.119 824.141 -266.55 812.481 -283.951 800.795C-318.856 777.37 -353.871 754.181 -388.178 729.254C-404.697 717.248 -420.726 702.125 -437.924 691.883C-447.974 685.893 -460 688.695 -470.739 689.074C-495.614 689.956 -520.475 691.628 -545.335 693.052C-575.744 694.79 -606.221 696.638 -636.664 695.952C-650.394 695.639 -684.022 698.853 -691.581 683.254C-695.648 674.853 -686.063 659.705 -681.62 652.696C-673.462 639.815 -664.085 628.207 -654.833 616.717C-633.434 590.144 -610.709 564.838 -591.688 535.155C-581.915 519.896 -569.111 501.253 -575.491 480.422C-581.93 459.382 -593.085 441.163 -599.891 420.195C-607.727 396.065 -610.976 370.955 -614.676 345.368C-617.416 326.457 -623.795 309.702 -629.794 292.268C-636.421 272.998 -643.287 253.564 -647.888 233.243C-650.93 219.819 -655.838 195.669 -645.199 187.171C-630.081 175.086 -601.733 184.871 -584.501 188.431C-560.686 193.344 -537.044 199.602 -513.293 204.991C-496.05 208.91 -478.748 213.208 -461.219 213.665C-432.96 214.404 -404.608 211.849 -376.424 209.472C-324.236 205.069 -272.422 199.099 -220.058 199.099C-174.182 199.099 -68.1659 269.104 -43.35 281.431C6.18285 306.038 57.0332 329.364 103.906 362.104C116.587 370.968 136.102 382.778 142.775 401.023C146.891 412.265 144.999 418.764 154.707 426.008C167.952 435.892 184.922 439.772 199.584 444.194C223.196 451.314 246.992 457.343 270.713 463.791C318.69 476.796 366.341 491.507 414.12 505.662C428.564 509.941 446.039 510.888 459.809 518.426C468.686 523.267 467.764 529.361 460.894 536.717C448.843 549.624 431.952 556.79 417.716 564.152C396.858 574.937 375.658 584.559 354.448 594.043C333.238 603.528 311.919 612.719 290.699 622.223C276.682 628.481 260.697 633.57 248.101 643.649Z" stroke="#FF8062" stroke-width="2" class="svg-elem-10 NbJsdCfc_9"></path>
<path fill-rule="evenodd" clip-rule="evenodd" d="M214.893 636.545C172.207 668.906 124.823 694.687 79.1442 719.839C20.6829 752.049 -39.1012 782.239 -100.699 802.374C-136.865 814.188 -179.537 827.232 -216.492 813.684C-229.675 808.85 -239.524 797.984 -250.825 788.394C-263.707 777.45 -277.083 767.422 -290.46 757.551C-317.996 737.233 -345.823 717.608 -373.941 698.677C-388.834 688.609 -405.227 675.127 -422.052 671.634C-435.429 668.854 -450.624 672.877 -464.06 674.048C-488.257 676.154 -512.449 678.326 -536.656 680.171C-564.589 682.297 -592.601 684.259 -620.593 683.919C-636.194 683.729 -662.977 686.863 -674.011 673.564C-683.637 661.959 -648.59 619.988 -642.427 612.014C-623.179 587.117 -602.936 563.41 -585.021 536.786C-574.433 521.087 -561.542 501.992 -557.078 481.183C-553.278 463.449 -560.611 443.242 -564.941 426.849C-570.356 406.315 -574.726 385.029 -581.018 364.926C-586.621 347.016 -595.539 331.061 -603.372 314.779C-611.987 296.868 -620.712 278.663 -627.108 259.123C-631.027 247.1 -637.512 226.965 -629.724 215.504C-620.727 202.29 -592.992 210.925 -581.592 212.809C-558.465 216.682 -535.517 222.438 -512.549 227.593C-474.4 236.149 -438.03 243.633 -399.183 241.84C-348.594 239.499 -298.055 233.991 -247.476 230.942C-228.798 229.804 -209.823 227.514 -191.13 228.751C-180.414 229.464 -172.254 233.781 -166.022 243.522C-157.51 256.814 -137.906 264.173 -124.271 271.801C-103.012 283.687 -81.4857 294.742 -60.0185 305.941C-12.8928 330.537 35.1397 354.244 79.8328 386.056C93.9725 396.117 110.163 407.335 120.622 423.957C126.458 433.227 124.987 442.156 128.549 452.008C133.265 464.967 148.773 470.815 158.042 475.054C175.932 483.244 194.556 488.732 213.035 493.874C254.85 505.505 296.764 513.152 339.257 518.784C349.216 520.092 388.429 524.626 367.834 546.474C345.079 570.619 312.221 582.453 285.433 596.059C261.301 608.292 237.148 619.674 214.893 636.545Z" stroke="#5BE7C3" stroke-width="2" class="svg-elem-11 NbJsdCfc_10"></path>
<path fill-rule="evenodd" clip-rule="evenodd" d="M155.901 630.56C115.777 659.03 71.3283 680.27 28.1146 700.589C-24.3241 725.244 -78.0771 747.222 -133.075 759.534C-167.624 767.26 -205.714 773.197 -240.03 760.357C-263.465 751.592 -281.593 727.896 -302.175 711.594C-322.758 695.292 -344.174 679.989 -366.229 667.233C-379.918 659.317 -394.644 651.343 -409.875 652.388C-446.909 654.922 -483.898 660.963 -520.972 663.896C-545.497 665.855 -570.072 667.468 -594.672 666.985C-609.507 666.698 -629.886 667.873 -643.019 657.58C-657.536 646.196 -580.24 548.997 -572.934 538.057C-554.618 510.626 -532.438 474.22 -535.98 435.209C-539.367 397.915 -554.048 370.072 -570.653 340.851C-580.076 324.229 -610.295 279.823 -599.096 258.204C-592.698 245.847 -571.61 250.125 -561.591 250.968C-541.847 252.627 -522.212 256.193 -502.571 259.289C-473.934 263.776 -444.508 270.705 -415.747 272.736C-395.72 274.147 -375.574 272.26 -355.512 272.22C-326.746 272.168 -297.979 272.456 -269.213 272.795C-245.06 273.083 -220.703 272.795 -196.633 275.852C-181.67 277.733 -170.312 281.959 -159.579 293.898C-150.24 304.283 -136.15 310.363 -124.247 316.966C-104.587 327.867 -84.6685 337.971 -64.8149 348.238C-23.2478 369.739 18.7954 390.79 58.582 417.659C76.7443 429.919 107.281 447.083 111.541 476.807C113.079 487.525 114.21 492.155 122.145 498.249C133.409 506.896 146.899 510.796 159.536 514.185C188.997 522.088 219.31 520.906 248.721 528.718C260.699 531.938 276.337 538.887 262.663 554.797C246.708 573.405 223.481 583.633 204.367 595.128C194.824 600.862 184.994 606.231 175.933 613.233C168.975 618.627 163.018 625.544 155.901 630.56Z" stroke="#5ACEF2" stroke-width="2" class="svg-elem-12 NbJsdCfc_11"></path>
<path fill-rule="evenodd" clip-rule="evenodd" d="M79.9053 621.672C42.8358 644.796 2.57724 661.608 -36.9583 676.764C-80.8713 693.577 -125.844 707.502 -171.411 713.427C-202.875 717.532 -236.399 718.743 -266.937 706.179C-286.249 698.231 -299.342 681.517 -315.96 667.5C-341.041 646.314 -368.177 629.528 -398.309 633.613C-432.091 638.183 -465.983 641.612 -499.986 643.899C-520.496 645.28 -541.086 646.314 -561.621 645.352C-574.605 644.75 -591.332 643.735 -602.628 635.977C-617.741 625.587 -560.973 546.526 -553.896 535.004C-536.347 506.427 -523.482 476.442 -515.965 441.036C-509.835 412.145 -522.358 389.433 -535.277 367.822C-543.309 354.401 -569.262 320.645 -561.136 303.217C-556.679 293.606 -541.992 294.104 -534.104 293.613C-519.07 292.683 -503.972 293.652 -488.938 294.078C-466.739 294.732 -443.109 290.235 -421.098 293.855C-372.317 301.868 -323.66 308.808 -274.578 314.301C-247.521 317.326 -220.3 320.075 -193.486 325.909C-183.86 328.004 -173.916 330.223 -164.795 334.963C-158.927 338.007 -155.728 343.193 -150.776 347.448C-127.166 367.704 -96.3458 378.127 -69.7544 391.109C-34.4031 408.367 1.13626 425.356 35.5466 445.743C53.6456 456.467 78.9248 468.788 91.3787 490.675C95.1421 497.287 93.5377 502.577 95.9047 508.934C98.6282 516.267 106.903 518.453 112.246 520.496C124.373 525.138 175.134 532.156 151.742 559.385C140.58 572.354 126.359 580.675 113.776 590.869C109.22 594.561 104.778 598.273 100.98 603.255C94.6271 611.609 88.368 616.375 79.9053 621.672Z" stroke="#F1B170" stroke-width="2" class="svg-elem-13 NbJsdCfc_12"></path>
<path fill-rule="evenodd" clip-rule="evenodd" d="M-1.06788 611.661C-74.248 649.072 -160.012 674.56 -239.796 669.622C-266.328 667.973 -294.875 662.473 -317.874 643.65C-331.435 632.531 -342.272 619.98 -358.563 615.964C-370.323 613.067 -382.986 616.357 -394.816 617.547C-411.949 619.274 -429.093 620.817 -446.252 622.066C-467.524 623.59 -488.866 624.768 -510.178 624.14C-525.406 623.688 -546.435 624.199 -559.664 613.407C-575.458 600.535 -535.256 540.155 -529.599 529.396C-515.889 503.319 -506.278 478.054 -502.804 446.627C-501.782 437.47 -498.338 428.085 -498.785 418.856C-499.251 409.432 -503.653 401.04 -507.717 393.63C-513.031 383.918 -531.47 360.882 -526.19 349.038C-523.273 342.497 -512.321 341.673 -506.645 340.287C-495.996 337.671 -485.194 336.264 -474.481 334.185C-456.305 330.64 -438.258 319.096 -420.018 319.423C-370.968 320.286 -321.209 340.352 -273.141 351.373C-244.565 357.946 -215.795 363.911 -187.566 372.812C-178.634 375.631 -169.435 378.548 -160.945 383.329C-155.02 386.665 -151.214 392.61 -145.726 396.344C-124.682 410.687 -100.482 419.393 -77.8852 429.046C-48.5496 441.604 -19.1148 453.782 10.0173 467.151C28.2776 475.529 51.758 482.9 67.4926 498.44C78.9847 509.787 71.1298 513.182 65.0662 523.751C61.9698 529.141 62.6844 534.451 61.3397 540.553C59.4194 549.265 53.9909 555.538 48.8998 561.175C41.8786 568.965 32.5251 575.381 26.784 584.93C24.7595 588.292 24.8538 592.465 23.2163 595.395C18.4528 603.93 5.81447 608.142 -1.06788 611.661Z" stroke="#FF8062" stroke-width="2" class="svg-elem-14 NbJsdCfc_13"></path>
<path fill-rule="evenodd" clip-rule="evenodd" d="M-78.8734 598.331C-138.267 621.852 -204.353 635.245 -267.135 629.029C-288.978 626.864 -310.956 621.832 -331.304 610.782C-340.561 605.77 -347.51 600.183 -357.655 599.882C-381.192 599.188 -404.804 601.616 -428.337 602.198C-445.178 602.617 -462.103 602.767 -478.904 600.981C-490.138 599.79 -505.329 598.364 -514.532 589.276C-527.906 576.041 -503.764 531.047 -498.851 518.616C-490.708 498.001 -482.629 475.082 -485.858 451.228C-486.849 443.933 -488.602 437.488 -488.83 430.049C-489.048 423.657 -488.439 417.756 -490.158 411.645C-492.283 404.069 -501.733 392.311 -498.484 385.337C-496.27 380.574 -489.702 380.352 -485.333 378.827C-478.248 376.355 -471.329 373.112 -464.649 369.131C-457.615 364.918 -451.627 358.408 -444.341 354.927C-432.512 349.287 -419.272 348.757 -406.84 348.784C-357.234 348.888 -306.998 361.797 -258.65 375.294C-233.473 382.321 -208.157 389.812 -183.688 400.47C-176.258 403.709 -167.838 406.96 -161.305 412.94C-157.228 416.663 -154.464 421.328 -149.833 424.128C-110.272 448.035 -64.5339 456.913 -22.5357 474.179C-11.604 478.674 48.9787 501.383 17.3029 522.745C-1.94028 535.725 -22.2732 541.627 -39.8323 559.383C-45.1817 564.781 -48.7481 569.249 -50.8383 577.487C-52.2153 582.969 -48.9016 580.189 -53.5279 585.92C-59.1399 592.809 -71.9538 595.59 -78.8734 598.331Z" stroke="#F1B170" stroke-width="2" class="svg-elem-15 NbJsdCfc_14"></path>
<style data-made-with="vivus-instant">.NbJsdCfc_0{stroke-dasharray:4442 4444;stroke-dashoffset:4443;animation:NbJsdCfc_draw 2000ms linear 0ms forwards;}.NbJsdCfc_1{stroke-dasharray:4053 4055;stroke-dashoffset:4054;animation:NbJsdCfc_draw 2000ms linear 71ms forwards;}.NbJsdCfc_2{stroke-dasharray:3615 3617;stroke-dashoffset:3616;animation:NbJsdCfc_draw 2000ms linear 142ms forwards;}.NbJsdCfc_3{stroke-dasharray:3155 3157;stroke-dashoffset:3156;animation:NbJsdCfc_draw 2000ms linear 214ms forwards;}.NbJsdCfc_4{stroke-dasharray:2721 2723;stroke-dashoffset:2722;animation:NbJsdCfc_draw 2000ms linear 285ms forwards;}.NbJsdCfc_5{stroke-dasharray:2365 2367;stroke-dashoffset:2366;animation:NbJsdCfc_draw 2000ms linear 357ms forwards;}.NbJsdCfc_6{stroke-dasharray:2103 2105;stroke-dashoffset:2104;animation:NbJsdCfc_draw 2000ms linear 428ms forwards;}.NbJsdCfc_7{stroke-dasharray:1892 1894;stroke-dashoffset:1893;animation:NbJsdCfc_draw 2000ms linear 500ms forwards;}.NbJsdCfc_8{stroke-dasharray:1681 1683;stroke-dashoffset:1682;animation:NbJsdCfc_draw 2000ms linear 571ms forwards;}.NbJsdCfc_9{stroke-dasharray:3067 3069;stroke-dashoffset:3068;animation:NbJsdCfc_draw 2000ms linear 642ms forwards;}.NbJsdCfc_10{stroke-dasharray:2795 2797;stroke-dashoffset:2796;animation:NbJsdCfc_draw 2000ms linear 714ms forwards;}.NbJsdCfc_11{stroke-dasharray:2421 2423;stroke-dashoffset:2422;animation:NbJsdCfc_draw 2000ms linear 785ms forwards;}.NbJsdCfc_12{stroke-dasharray:2006 2008;stroke-dashoffset:2007;animation:NbJsdCfc_draw 2000ms linear 857ms forwards;}.NbJsdCfc_13{stroke-dasharray:1652 1654;stroke-dashoffset:1653;animation:NbJsdCfc_draw 2000ms linear 928ms forwards;}.NbJsdCfc_14{stroke-dasharray:1379 1381;stroke-dashoffset:1380;animation:NbJsdCfc_draw 2000ms linear 1000ms forwards;}@keyframes NbJsdCfc_draw{100%{stroke-dashoffset:0;}}@keyframes NbJsdCfc_fade{0%{stroke-opacity:1;}94.44444444444444%{stroke-opacity:1;}100%{stroke-opacity:0;}}</style></svg>
